<svg width="68" height="66" viewBox="0 0 68 66" fill="none" xmlns="http://www.w3.org/2000/svg">
<rect x="0.536377" width="66.8851" height="66" rx="24" fill="url(#paint0_linear_5_1300)"/>
<path fill-rule="evenodd" clip-rule="evenodd" d="M19.8254 16C18.1301 16 16.751 17.3611 16.751 19.034V21.3765H22.9001V19.034C22.9001 17.3611 21.5207 16 19.8254 16ZM46.2256 43.5742V19.9992C46.2256 17.7906 44.4112 16 42.173 16H23.0694C23.8307 16.7922 24.3012 17.8588 24.3012 19.034V47.0335C24.3012 48.6654 25.5694 50.0714 27.221 50.1518C28.9864 50.2376 30.4503 48.8451 30.4503 47.1215V43.576H46.2258C46.2258 43.5753 46.2256 43.5749 46.2256 43.5742ZM30.0683 38.5048H40.8807V40.3482H30.0683V38.5048ZM30.0683 33.9731H40.8807V35.8165H30.0683V33.9731ZM30.0683 29.4413H40.8807V31.2847H30.0683V29.4413ZM30.0683 24.9098H40.8807V26.7532H30.0683V24.9098ZM30.0683 20.3781H40.8807V22.2215H30.0683V20.3781ZM31.8514 44.9585V47.1215C31.8514 48.2967 31.3809 49.3633 30.6196 50.1555H48.1325C49.8278 50.1555 51.2069 48.7947 51.2069 47.1215V44.9585H31.8514Z" fill="white"/>
<defs>
<linearGradient id="paint0_linear_5_1300" x1="14.2174" y1="2.86509e-07" x2="45.4529" y2="66.3235" gradientUnits="userSpaceOnUse">
<stop stop-color="#FFD085"/>
<stop offset="1" stop-color="#FFAF2E"/>
</linearGradient>
</defs>
</svg>
